<?xml version="1.0" encoding="UTF-8" standalone="no"?>
<!-- Generator: Adobe Illustrator 19.0.0, SVG Export Plug-In . SVG Version: 6.00 Build 0)  -->

<svg
   version="1.1"
   id="Layer_1"
   x="0px"
   y="0px"
   viewBox="0 0 512 512"
   style="enable-background:new 0 0 512 512;"
   xml:space="preserve"
   sodipodi:docname="login.svg"
   inkscape:version="1.1.1 (3bf5ae0d25, 2021-09-20)"
   xmlns:inkscape="http://www.inkscape.org/namespaces/inkscape"
   xmlns:sodipodi="http://sodipodi.sourceforge.net/DTD/sodipodi-0.dtd"
   xmlns="http://www.w3.org/2000/svg"
   xmlns:svg="http://www.w3.org/2000/svg"><defs
   id="defs59" /><sodipodi:namedview
   id="namedview57"
   pagecolor="#ffffff"
   bordercolor="#666666"
   borderopacity="1.0"
   inkscape:pageshadow="2"
   inkscape:pageopacity="0.0"
   inkscape:pagecheckerboard="0"
   showgrid="false"
   inkscape:zoom="1.609375"
   inkscape:cx="255.68932"
   inkscape:cy="255.68932"
   inkscape:window-width="2560"
   inkscape:window-height="1009"
   inkscape:window-x="-8"
   inkscape:window-y="-8"
   inkscape:window-maximized="1"
   inkscape:current-layer="Layer_1" />
<path
   style="fill:#ff8c29;fill-opacity:1;stroke-width:0.621359"
   d="m 65.210818,237.32725 c -3.592845,-1.77317 -5.040293,-6.44408 -3.128593,-10.09597 0.483087,-0.92284 6.011611,-6.75617 12.285609,-12.96297 12.585923,-12.45112 13.747511,-13.16201 18.117894,-11.08813 3.859748,1.83157 5.396119,5.65966 3.802619,9.47478 -1.116724,2.67363 -22.450038,24.10931 -24.934111,25.05375 -2.148339,0.8168 -3.94101,0.70549 -6.143418,-0.38146 z"
   id="path5942" /><path
   style="fill:#ff8c29;fill-opacity:1;stroke-width:0.621359"
   d="m 46.054712,190.42521 c -2.530512,-0.75767 -4.640242,-2.93789 -5.446302,-5.62828 -0.58058,-1.9378 -0.504396,-2.68888 0.476469,-4.6974 2.137327,-4.37661 3.090315,-4.5638 23.225801,-4.56226 16.45781,0.001 17.849002,0.0869 19.694394,1.21209 3.071902,1.87306 4.130413,3.91961 3.754096,7.25828 -0.391791,3.47596 -2.358304,5.66983 -5.797241,6.46751 -3.068432,0.71173 -33.50472,0.6694 -35.907217,-0.0499 z"
   id="path5981" /><path
   style="fill:#ff8c29;fill-opacity:1;stroke-width:0.621359"
   d="M 74.449766,151.79364 C 66.486903,143.86877 62.230925,139.17098 61.78206,137.8109 c -0.960016,-2.90888 -0.20499,-5.42543 2.283211,-7.6101 1.739117,-1.52697 2.7085,-1.89012 5.045363,-1.89012 h 2.892635 l 11.735515,11.65049 c 6.454534,6.40776 12.13341,12.40553 12.619725,13.32836 1.150521,2.18324 1.116544,3.85829 -0.131617,6.4886 -1.241175,2.61558 -3.656687,3.95003 -7.150042,3.95003 -2.591863,0 -2.833227,-0.19694 -14.627084,-11.93452 z"
   id="path6020" /><path
   style="fill:#687F82;"
   d="M386.694,42.702C358.977,15.144,322.305,0,283.343,0c-0.287,0-0.576,0.001-0.864,0.002  C202.081,0.464,136.674,66.94,136.674,148.188v36.322c0,4.355,3.53,7.885,7.885,7.885h42.053c4.355,0,7.885-3.53,7.885-7.885  v-36.615c0-49.193,39.459-89.597,87.96-90.067c23.882-0.187,46.361,8.911,63.356,25.741c16.999,16.835,26.36,39.241,26.36,63.093  v75.193c0,15.664,12.5,28.851,27.866,29.396c0.355,0.013,0.709,0.019,1.063,0.019c7.531,0,14.619-2.856,20.059-8.107  c5.697-5.498,8.835-12.887,8.835-20.805v-75.696C429.996,107.386,414.618,70.467,386.694,42.702z"
   id="path2" />
<g
   id="g8">
	<path
   style="fill:#FFFFFF;"
   d="M408.969,188.188c-4.355,0-7.885-3.53-7.885-7.885v-33.642c0-18.004-3.935-35.24-11.695-51.227   c-1.902-3.917-0.267-8.635,3.65-10.536c3.918-1.903,8.636-0.267,10.536,3.65c8.81,18.151,13.277,37.703,13.277,58.113v33.642   C416.854,184.659,413.324,188.188,408.969,188.188z"
   id="path4" />
	<path
   style="fill:#FFFFFF;"
   d="M371.868,65.498c-2.01,0-4.021-0.764-5.559-2.294c-8.289-8.241-17.646-15.168-27.808-20.586   c-16.817-8.967-35.889-13.706-55.157-13.706c-4.355,0-7.885-3.53-7.885-7.885s3.53-7.885,7.885-7.885   c21.846,0,43.485,5.381,62.578,15.561c11.524,6.144,22.124,13.99,31.507,23.319c3.088,3.071,3.102,8.063,0.032,11.152   C375.918,64.722,373.894,65.498,371.868,65.498z"
   id="path6" />
</g>
<path
   style="fill:#4ACFD9;"
   d="M432.624,214.472H134.045c-21.74,0-39.425,17.686-39.425,39.425v250.218  c0,4.355,3.53,7.885,7.885,7.885h361.659c4.355,0,7.885-3.53,7.885-7.885V253.897C472.049,232.158,454.364,214.472,432.624,214.472z  "
   id="path10" />
<path
   style="fill:#0295AA;"
   d="M134.045,214.472c-21.74,0-39.425,17.686-39.425,39.425v250.218c0,4.355,3.53,7.885,7.885,7.885  h180.83V214.472H134.045z"
   id="path12" />
<path
   style="fill:#FFD1A9;"
   d="M297.578,350.283c22.964-6.271,39.9-27.304,39.9-52.229c0-29.855-24.289-54.144-54.144-54.144  c-29.855,0-54.144,24.289-54.144,54.144c0,24.925,16.936,45.958,39.9,52.229c-39.322,6.783-69.338,41.112-69.338,82.342v42.053  c0,4.355,3.53,7.885,7.885,7.885h151.392c4.355,0,7.885-3.53,7.885-7.885v-42.053C366.916,391.395,336.9,357.066,297.578,350.283z"
   id="path14" />
<path
   style="fill:#FF8C29;"
   d="M229.191,298.053c0,24.925,16.936,45.958,39.9,52.229c-39.322,6.783-69.338,41.112-69.338,82.342  v42.053c0,4.355,3.53,7.885,7.885,7.885h75.696V243.91C253.48,243.91,229.191,268.199,229.191,298.053z"
   id="path16" />

<g
   id="g26">
</g>
<g
   id="g28">
</g>
<g
   id="g30">
</g>
<g
   id="g32">
</g>
<g
   id="g34">
</g>
<g
   id="g36">
</g>
<g
   id="g38">
</g>
<g
   id="g40">
</g>
<g
   id="g42">
</g>
<g
   id="g44">
</g>
<g
   id="g46">
</g>
<g
   id="g48">
</g>
<g
   id="g50">
</g>
<g
   id="g52">
</g>
<g
   id="g54">
</g>
</svg>
